<svg xmlns="http://www.w3.org/2000/svg" viewBox="0 0 290.64 182.64"><defs><style>.cls-1{fill:#d6d6d6;}.cls-2{fill:#fff;}.cls-3{fill:#ff4949;}.cls-4{fill:#fad543;}.cls-5{fill:#34c928;}.cls-6{fill:#4d3028;}.cls-7{fill:#e5e5e5;}.cls-8{fill:#f5f5f5;}.cls-9{fill:#b0b0b0;}.cls-10{fill:#bfbfbf;}.cls-11{fill:#fe6161;}.cls-12{fill:#458d28;}.cls-13{fill:#dcdcdc;}.cls-14{fill:#c3c3c3;}</style></defs><title>Artboard 1</title><g id="Window"><g id="Rectangle_1" data-name="Rectangle 1"><rect class="cls-1" width="290.64" height="182.64"/></g><g id="Rectangle_2" data-name="Rectangle 2"><rect class="cls-2" x="6.48" y="16.56" width="277.92" height="159.84"/></g><g id="Ellipse_1" data-name="Ellipse 1"><ellipse class="cls-3" cx="12.22" cy="8.64" rx="4.06" ry="4.08"/></g><g id="Ellipse_1_copy" data-name="Ellipse 1 copy"><ellipse class="cls-4" cx="23.76" cy="8.64" rx="4.06" ry="4.08"/></g><g id="Ellipse_1_copy_2" data-name="Ellipse 1 copy 2"><ellipse class="cls-5" cx="35.3" cy="8.64" rx="4.06" ry="4.08"/></g></g><g id="Top_navigation" data-name="Top navigation"><g id="Rectangle_3" data-name="Rectangle 3"><rect class="cls-6" x="6.48" y="16.56" width="277.92" height="15.84"/></g><g id="Rectangle_4_copy_2" data-name="Rectangle 4 copy 2"><rect class="cls-7" x="269.04" y="21.12" width="9.12" height="6.96"/></g><g id="Rectangle_4" data-name="Rectangle 4"><rect class="cls-7" x="28.56" y="21.12" width="48.24" height="6.96"/></g><g id="Rectangle_4_copy" data-name="Rectangle 4 copy"><rect class="cls-7" x="11.04" y="19.44" width="14.4" height="10.08"/></g><g id="Rectangle_4_copy_3" data-name="Rectangle 4 copy 3"><rect class="cls-7" x="256.8" y="21.12" width="9.12" height="6.96"/></g><g id="Rectangle_4_copy_4" data-name="Rectangle 4 copy 4"><rect class="cls-7" x="244.56" y="21.12" width="9.12" height="6.96"/></g><g id="Rectangle_4_copy_5" data-name="Rectangle 4 copy 5"><rect class="cls-7" x="232.32" y="21.12" width="9.12" height="6.96"/></g></g><g id="Service_chooser" data-name="Service chooser"><g id="Rectangle_4_copy_7" data-name="Rectangle 4 copy 7"><rect class="cls-8" x="11.04" y="36.72" width="49.44" height="12.24"/></g><g id="Rectangle_5" data-name="Rectangle 5"><rect class="cls-9" x="13.44" y="39.4" width="44.64" height="6.57"/></g></g><g id="Labels_and_folders" data-name="Labels and folders"><g id="Rectangle_4_copy_6" data-name="Rectangle 4 copy 6"><rect class="cls-8" x="11.04" y="52.56" width="49.44" height="87.84"/></g><g id="Rectangle_5_copy_3" data-name="Rectangle 5 copy 3"><rect class="cls-10" x="13.44" y="77.28" width="20.4" height="6.96"/></g><g id="Rectangle_5_copy" data-name="Rectangle 5 copy"><rect class="cls-11" x="13.44" y="55.44" width="44.64" height="6.96"/></g><g id="Rectangle_5_copy_2" data-name="Rectangle 5 copy 2"><rect class="cls-10" x="13.44" y="66.72" width="27.12" height="6.96"/></g><g id="Rectangle_5_copy_4" data-name="Rectangle 5 copy 4"><rect class="cls-10" x="13.44" y="87.84" width="30.96" height="6.96"/></g><g id="Rectangle_5_copy_5" data-name="Rectangle 5 copy 5"><rect class="cls-10" x="13.44" y="99.12" width="27.12" height="6.96"/></g><g id="Rectangle_5_copy_6" data-name="Rectangle 5 copy 6"><rect class="cls-10" x="13.44" y="109.68" width="23.52" height="6.96"/></g><g id="Rectangle_5_copy_7" data-name="Rectangle 5 copy 7"><rect class="cls-12" x="50.4" y="66.72" width="7.68" height="6.96"/></g></g><g id="Group_1" data-name="Group 1"><g id="Rectangle_4_copy_9" data-name="Rectangle 4 copy 9"><rect class="cls-8" x="64.8" y="52.56" width="213.6" height="119.52"/></g><g id="Rectangle_4_copy_10" data-name="Rectangle 4 copy 10"><rect class="cls-13" x="67.2" y="55.44" width="206.64" height="6.96"/></g><g id="Rectangle_4_copy_11" data-name="Rectangle 4 copy 11"><rect class="cls-13" x="67.2" y="66" width="206.64" height="6.96"/></g><g id="Rectangle_4_copy_12" data-name="Rectangle 4 copy 12"><rect class="cls-14" x="67.2" y="76.56" width="206.64" height="6.96"/></g><g id="Rectangle_4_copy_13" data-name="Rectangle 4 copy 13"><rect class="cls-13" x="67.2" y="87.12" width="206.64" height="6.96"/></g><g id="Rectangle_4_copy_14" data-name="Rectangle 4 copy 14"><rect class="cls-13" x="67.2" y="97.68" width="206.64" height="6.96"/></g><g id="Rectangle_4_copy_15" data-name="Rectangle 4 copy 15"><rect class="cls-13" x="67.2" y="108.24" width="206.64" height="6.96"/></g><g id="Rectangle_4_copy_16" data-name="Rectangle 4 copy 16"><rect class="cls-14" x="67.2" y="118.8" width="206.64" height="6.96"/></g><g id="Rectangle_4_copy_17" data-name="Rectangle 4 copy 17"><rect class="cls-13" x="67.2" y="129.36" width="206.64" height="6.96"/></g><g id="Rectangle_4_copy_18" data-name="Rectangle 4 copy 18"><rect class="cls-13" x="67.2" y="139.92" width="206.64" height="6.96"/></g><g id="Rectangle_4_copy_19" data-name="Rectangle 4 copy 19"><rect class="cls-14" x="67.2" y="150.48" width="206.64" height="6.96"/></g><g id="Rectangle_4_copy_20" data-name="Rectangle 4 copy 20"><rect class="cls-13" x="67.2" y="161.04" width="206.64" height="6.96"/></g></g><g id="Search_and_filtering" data-name="Search and filtering"><g id="Rectangle_4_copy_8" data-name="Rectangle 4 copy 8"><rect class="cls-8" x="64.8" y="36.72" width="213.6" height="12.24"/></g><g id="Rectangle_5_copy_8" data-name="Rectangle 5 copy 8"><rect class="cls-9" x="159.6" y="39.6" width="68.64" height="6.48"/></g><g id="Rectangle_5_copy_13" data-name="Rectangle 5 copy 13"><rect class="cls-9" x="67.2" y="39.6" width="88.08" height="6.48"/></g><g id="Rectangle_5_copy_9" data-name="Rectangle 5 copy 9"><rect class="cls-9" x="232.08" y="39.6" width="7.2" height="6.48"/></g><g id="Rectangle_5_copy_10" data-name="Rectangle 5 copy 10"><rect class="cls-9" x="243.6" y="39.6" width="7.2" height="6.48"/></g><g id="Rectangle_5_copy_11" data-name="Rectangle 5 copy 11"><rect class="cls-9" x="255.12" y="39.6" width="7.2" height="6.48"/></g><g id="Rectangle_5_copy_12" data-name="Rectangle 5 copy 12"><rect class="cls-9" x="266.64" y="39.6" width="7.2" height="6.48"/></g></g></svg>